<svg xmlns="http://www.w3.org/2000/svg" width="25" height="25" viewBox="0 0 25 25"><path fill="currentColor" d="M.363.849a.8.8 0 0 1 .801-.801h2.403a.801.801 0 0 1 .777.607l.649 2.597h18.599a.801.801 0 0 1 .786.948l-2.403 12.815a.8.8 0 0 1-.786.654H6.77a.8.8 0 0 1-.786-.654L3.583 4.226l-.64-2.575H1.163a.801.801 0 0 1-.8-.801Zm4.97 4.005 2.103 11.213h13.088l2.103-11.213H5.333Zm3.04 12.815a3.204 3.204 0 1 0 0 6.408 3.204 3.204 0 0 0 0-6.408Zm11.214 0a3.204 3.204 0 1 0 0 6.407 3.204 3.204 0 0 0 0-6.407ZM8.373 19.271a1.602 1.602 0 1 1 0 3.204 1.602 1.602 0 0 1 0-3.204Zm11.214 0a1.602 1.602 0 1 1 0 3.204 1.602 1.602 0 0 1 0-3.204Z"/></svg>