<svg width="42" height="42" viewBox="0 0 42 42" fill="none" xmlns="http://www.w3.org/2000/svg">
<path fill-rule="evenodd" clip-rule="evenodd" d="M21 39.375C25.8734 39.375 30.5471 37.4391 33.9931 33.9931C37.4391 30.5471 39.375 25.8734 39.375 21C39.375 16.1266 37.4391 11.4529 33.9931 8.00691C30.5471 4.56093 25.8734 2.625 21 2.625C16.1266 2.625 11.4529 4.56094 8.00691 8.00692C4.56093 11.4529 2.625 16.1266 2.625 21C2.625 25.8734 4.56093 30.5471 8.00691 33.9931C11.4529 37.4391 16.1266 39.375 21 39.375ZM21 2.89676e-06C26.5695 2.65331e-06 31.911 2.2125 35.8492 6.15076C39.7875 10.089 42 15.4305 42 21C42 26.5695 39.7875 31.911 35.8492 35.8492C31.911 39.7875 26.5695 42 21 42C15.4305 42 10.089 39.7875 6.15076 35.8492C2.21249 31.911 -6.74486e-07 26.5695 -9.17939e-07 21C-1.16139e-06 15.4305 2.21249 10.089 6.15076 6.15076C10.089 2.2125 15.4305 3.14021e-06 21 2.89676e-06ZM19.6875 30.1875C19.6875 30.5356 19.8258 30.8694 20.0719 31.1156C20.3181 31.3617 20.6519 31.5 21 31.5C21.3481 31.5 21.6819 31.3617 21.9281 31.1156C22.1742 30.8694 22.3125 30.5356 22.3125 30.1875L22.3125 14.9809L27.9457 20.6168C28.0678 20.7388 28.2127 20.8356 28.3721 20.9016C28.5315 20.9677 28.7024 21.0017 28.875 21.0017C29.0476 21.0017 29.2185 20.9677 29.3779 20.9016C29.5373 20.8356 29.6822 20.7388 29.8042 20.6168C29.9263 20.4947 30.0231 20.3498 30.0891 20.1904C30.1552 20.031 30.1892 19.8601 30.1892 19.6875C30.1892 19.5149 30.1552 19.344 30.0891 19.1846C30.0231 19.0252 29.9263 18.8803 29.8042 18.7582L21.9292 10.8833C21.8073 10.761 21.6625 10.664 21.503 10.5979C21.3436 10.5317 21.1726 10.4977 21 10.4977C20.8274 10.4977 20.6564 10.5317 20.497 10.5979C20.3375 10.664 20.1927 10.761 20.0707 10.8833L12.1957 18.7583C12.0737 18.8803 11.9769 19.0252 11.9109 19.1846C11.8448 19.344 11.8108 19.5149 11.8108 19.6875C11.8108 19.8601 11.8448 20.031 11.9109 20.1904C11.9769 20.3498 12.0737 20.4947 12.1957 20.6168C12.3178 20.7388 12.4627 20.8356 12.6221 20.9016C12.7815 20.9677 12.9524 21.0017 13.125 21.0017C13.2976 21.0017 13.4685 20.9677 13.6279 20.9016C13.7873 20.8356 13.9322 20.7388 14.0542 20.6168L19.6875 14.9809L19.6875 30.1875Z" fill="white"/>
</svg>
