<svg width="37" height="37" viewBox="0 0 37 37" fill="none" xmlns="http://www.w3.org/2000/svg">
<path d="M8.49014 26.6564H3.34111V34.3799H8.49014V26.6564ZM21.3627 16.3583H16.2137V34.3799H21.3627V16.3583ZM34.2353 3.48577V34.3799H29.0862V3.48577H34.2353ZM29.0862 0.911255C28.4034 0.911255 27.7486 1.1825 27.2658 1.66531C26.783 2.14813 26.5117 2.80296 26.5117 3.48577V34.3799C26.5117 35.0627 26.783 35.7176 27.2658 36.2004C27.7486 36.6832 28.4034 36.9544 29.0862 36.9544H34.2353C34.9181 36.9544 35.5729 36.6832 36.0557 36.2004C36.5385 35.7176 36.8098 35.0627 36.8098 34.3799V3.48577C36.8098 2.80296 36.5385 2.14813 36.0557 1.66531C35.5729 1.1825 34.9181 0.911255 34.2353 0.911255H29.0862ZM13.6392 16.3583C13.6392 15.6755 13.9104 15.0207 14.3932 14.5379C14.876 14.0551 15.5309 13.7838 16.2137 13.7838H21.3627C22.0455 13.7838 22.7003 14.0551 23.1832 14.5379C23.666 15.0207 23.9372 15.6755 23.9372 16.3583V34.3799C23.9372 35.0627 23.666 35.7176 23.1832 36.2004C22.7003 36.6832 22.0455 36.9544 21.3627 36.9544H16.2137C15.5309 36.9544 14.876 36.6832 14.3932 36.2004C13.9104 35.7176 13.6392 35.0627 13.6392 34.3799V16.3583ZM0.766602 26.6564C0.766602 25.9736 1.03784 25.3187 1.52066 24.8359C2.00347 24.3531 2.65831 24.0819 3.34111 24.0819H8.49014C9.17294 24.0819 9.82778 24.3531 10.3106 24.8359C10.7934 25.3187 11.0646 25.9736 11.0646 26.6564V34.3799C11.0646 35.0627 10.7934 35.7176 10.3106 36.2004C9.82778 36.6832 9.17294 36.9544 8.49014 36.9544H3.34111C2.65831 36.9544 2.00347 36.6832 1.52066 36.2004C1.03784 35.7176 0.766602 35.0627 0.766602 34.3799V26.6564Z" fill="white"/>
</svg>
