<svg width="26" height="16" viewBox="0 0 26 16" fill="none" xmlns="http://www.w3.org/2000/svg">
<path d="M7.4093 0C8.14322 0 8.82143 0.0557211 9.44391 0.222884C10.0648 0.334326 10.5758 0.566762 11.0296 0.845367C11.4833 1.12397 11.8208 1.52357 12.0501 2.03461C12.2729 2.54406 12.3939 3.16654 12.3939 3.84475C12.3939 4.63439 12.2252 5.3126 11.8272 5.82205C11.4849 6.33149 10.9261 6.78681 10.2399 7.12273C11.2047 7.40293 11.9386 7.91238 12.386 8.59058C12.8333 9.26879 13.1199 10.1142 13.1199 11.0789C13.1199 11.8686 12.9527 12.5468 12.6662 13.1135C12.3813 13.6847 11.9522 14.1715 11.4212 14.5257C10.9118 14.8679 10.2893 15.1466 9.61107 15.3153C8.94681 15.4912 8.26354 15.5853 7.57646 15.5955L0 15.6066V0H7.4093ZM6.95557 6.33309C7.57646 6.33309 8.08591 6.16592 8.47914 5.87936C8.87078 5.59279 9.04431 5.08812 9.04431 4.46723C9.04431 4.12335 8.98859 3.78903 8.87715 3.56455C8.75551 3.33775 8.5807 3.14382 8.3677 2.99938C8.13708 2.87273 7.89012 2.77845 7.63377 2.71918C7.35358 2.66346 7.06701 2.66346 6.73109 2.66346H3.4547V6.34105C3.4547 6.33309 6.95557 6.33309 6.95557 6.33309ZM7.12273 13.0085C7.46502 13.0085 7.80094 12.9527 8.0875 12.897C8.3677 12.8413 8.65426 12.7283 8.87715 12.5531C9.10003 12.378 9.27515 12.2109 9.44391 11.9322C9.55535 11.6521 9.66679 11.3098 9.66679 10.9118C9.66679 10.1221 9.44391 9.55535 8.98859 9.15734C8.53486 8.81506 7.91238 8.64789 7.17845 8.64789H3.4547V13.0005H7.12432L7.12273 13.0085ZM18.0409 12.9527C18.4951 13.4059 19.1733 13.632 20.0755 13.6309C20.6964 13.6309 21.2631 13.4622 21.7184 13.1756C22.1706 12.836 22.4518 12.4964 22.5622 12.1567H25.3323C24.877 13.5115 24.1988 14.4763 23.2977 15.0988C22.3966 15.664 21.3188 15.9999 20.0182 15.9999C19.1863 16.0049 18.3612 15.8509 17.5871 15.5462C16.8893 15.2887 16.2671 14.8607 15.777 14.3012C15.2529 13.7808 14.8638 13.1403 14.6435 12.4353C14.3649 11.7014 14.2455 10.9118 14.2455 10.0027C14.2455 9.15734 14.3569 8.35974 14.6435 7.62581C14.93 6.89348 15.3217 6.26941 15.8327 5.70424C16.3422 5.19479 16.9646 4.73947 17.6429 4.45927C18.3989 4.1575 19.2057 4.00348 20.0197 4.00554C20.9845 4.00554 21.8299 4.1727 22.5638 4.57071C23.2961 4.96872 23.8645 5.41767 24.3182 6.09587C24.772 6.71677 25.1079 7.45069 25.3387 8.24193C25.4502 9.03157 25.5059 9.82759 25.4502 10.7303H17.2512C17.2512 11.6536 17.5855 12.4974 18.0409 12.9527ZM21.607 7.01129C21.209 6.61328 20.5849 6.38881 19.851 6.38881C19.3415 6.38881 18.9499 6.50025 18.6076 6.669C18.2653 6.83776 18.0409 7.06701 17.818 7.2899C17.6101 7.50858 17.4716 7.78388 17.42 8.08113C17.3627 8.35974 17.3085 8.59058 17.3085 8.81347H22.3966C22.2852 7.97606 22.0002 7.4093 21.607 7.01129ZM16.6287 1.07621H22.9618V2.59978H16.6287V1.07621Z" fill="white"/>
</svg>
