<svg width="22" height="16" viewBox="0 0 22 16" fill="none" xmlns="http://www.w3.org/2000/svg">
<path d="M0 2.66667C0 1.95942 0.282008 1.28115 0.783985 0.781048C1.28596 0.280951 1.96679 0 2.67669 0H18.7368C19.4467 0 20.1276 0.280951 20.6295 0.781048C21.1315 1.28115 21.4135 1.95942 21.4135 2.66667V13.3333C21.4135 14.0406 21.1315 14.7189 20.6295 15.219C20.1276 15.719 19.4467 16 18.7368 16H2.67669C1.96679 16 1.28596 15.719 0.783985 15.219C0.282008 14.7189 0 14.0406 0 13.3333V2.66667ZM2.67669 1.33333C2.32174 1.33333 1.98133 1.47381 1.73034 1.72386C1.47935 1.97391 1.33835 2.31304 1.33835 2.66667V4H20.0752V2.66667C20.0752 2.31304 19.9342 1.97391 19.6832 1.72386C19.4322 1.47381 19.0918 1.33333 18.7368 1.33333H2.67669ZM20.0752 6.66667H1.33835V13.3333C1.33835 13.687 1.47935 14.0261 1.73034 14.2761C1.98133 14.5262 2.32174 14.6667 2.67669 14.6667H18.7368C19.0918 14.6667 19.4322 14.5262 19.6832 14.2761C19.9342 14.0261 20.0752 13.687 20.0752 13.3333V6.66667Z" fill="white"/>
</svg>
