<svg width="27" height="37" viewBox="0 0 27 37" fill="none" xmlns="http://www.w3.org/2000/svg">
<path d="M17.1007 2.85759L13.341 0.911255L9.5812 2.85759L5.39569 3.49285L3.49892 7.27738L0.487061 10.2509L1.17639 14.4274L0.487061 18.6039L3.49892 21.5775L5.39569 25.362L9.5812 25.9973L13.341 27.9436L17.1007 25.9973L21.2862 25.362L23.183 21.5775L26.1948 18.6039L25.5055 14.4274L26.1948 10.2509L23.183 7.27738L21.2862 3.49285L17.1007 2.85759ZM19.7949 5.54505L21.3358 8.61998L23.7822 11.0349L23.2235 14.4274L23.7822 17.82L21.3358 20.2349L19.7949 23.3098L16.3934 23.8257L13.341 25.4071L10.2885 23.8257L6.88697 23.3098L5.34613 20.2349L2.8997 17.82L3.46062 14.4274L2.89745 11.0349L5.34613 8.61998L6.88697 5.54505L10.2885 5.02918L13.341 3.44779L16.3956 5.02918L19.7949 5.54505Z" fill="white"/>
<path d="M4.32983 27.4796V36.9545L13.3406 34.7018L22.3514 36.9545V27.4796L17.8055 28.1689L13.3406 30.4802L8.87578 28.1689L4.32983 27.4796Z" fill="white"/>
</svg>
