<svg width="18" height="24" viewBox="0 0 18 24" fill="none" xmlns="http://www.w3.org/2000/svg">
<path d="M11.0625 1.296L8.559 0L6.0555 1.296L3.2685 1.719L2.0055 4.239L0 6.219L0.459 9L0 11.781L2.0055 13.761L3.2685 16.281L6.0555 16.704L8.559 18L11.0625 16.704L13.8495 16.281L15.1125 13.761L17.118 11.781L16.659 9L17.118 6.219L15.1125 4.239L13.8495 1.719L11.0625 1.296ZM12.8565 3.0855L13.8825 5.133L15.5115 6.741L15.1395 9L15.5115 11.259L13.8825 12.867L12.8565 14.9145L10.5915 15.258L8.559 16.311L6.5265 15.258L4.2615 14.9145L3.2355 12.867L1.6065 11.259L1.98 9L1.605 6.741L3.2355 5.133L4.2615 3.0855L6.5265 2.742L8.559 1.689L10.593 2.742L12.8565 3.0855Z" fill="#17003B"/>
<path d="M2.55884 17.6909V23.9999L8.55884 22.4999L14.5588 23.9999V17.6909L11.5318 18.1499L8.55884 19.6889L5.58584 18.1499L2.55884 17.6909Z" fill="#17003B"/>
</svg>
