<svg width="22" height="19" viewBox="0 0 22 19" fill="none" xmlns="http://www.w3.org/2000/svg">
<g filter="url(#filter0_d_56_20)">
<path d="M15.3277 0.350702C15.5595 0.123273 15.8679 -0.00245916 16.1879 3.64524e-05C16.5079 0.00253207 16.8145 0.133061 17.0429 0.364078C17.2713 0.595096 17.4037 0.908535 17.4122 1.23825C17.4206 1.56797 17.3045 1.88819 17.0882 2.13132L10.5233 10.5935C10.4104 10.7188 10.2742 10.8194 10.1227 10.8892C9.97126 10.959 9.8077 10.9966 9.64181 10.9998C9.47593 11.0029 9.31113 10.9716 9.15727 10.9076C9.00341 10.8436 8.86364 10.7483 8.74633 10.6274L4.39276 6.14026C4.27152 6.02382 4.17427 5.8834 4.10683 5.72739C4.03938 5.57137 4.00312 5.40296 4.00019 5.23218C3.99727 5.06141 4.02775 4.89177 4.08981 4.7334C4.15188 4.57503 4.24425 4.43117 4.36143 4.31039C4.47861 4.18962 4.61819 4.09441 4.77185 4.03044C4.9255 3.96647 5.09009 3.93506 5.25578 3.93807C5.42147 3.94108 5.58487 3.97846 5.73624 4.04798C5.88761 4.11749 6.02385 4.21772 6.13682 4.34268L9.58217 7.89205L15.2964 0.388011L15.3277 0.350702Z" fill="#E71BF0"/>
</g>
<defs>
<filter id="filter0_d_56_20" x="0" y="0" width="21.4126" height="19" filterUnits="userSpaceOnUse" color-interpolation-filters="sRGB">
<feFlood flood-opacity="0" result="BackgroundImageFix"/>
<feColorMatrix in="SourceAlpha" type="matrix" values="0 0 0 0 0 0 0 0 0 0 0 0 0 0 0 0 0 0 127 0" result="hardAlpha"/>
<feOffset dy="4"/>
<feGaussianBlur stdDeviation="2"/>
<feComposite in2="hardAlpha" operator="out"/>
<feColorMatrix type="matrix" values="0 0 0 0 0 0 0 0 0 0 0 0 0 0 0 0 0 0 0.25 0"/>
<feBlend mode="normal" in2="BackgroundImageFix" result="effect1_dropShadow_56_20"/>
<feBlend mode="normal" in="SourceGraphic" in2="effect1_dropShadow_56_20" result="shape"/>
</filter>
</defs>
</svg>
