<svg width="47" height="37" viewBox="0 0 47 37" fill="none" xmlns="http://www.w3.org/2000/svg">
<path d="M0.432617 6.67816C0.432617 6.67816 0.432617 0.911255 6.19952 0.911255H40.801C40.801 0.911255 46.5679 0.911255 46.5679 6.67816V23.9789C46.5679 23.9789 46.5679 29.7458 40.801 29.7458H29.2672C29.2672 31.6681 29.5074 33.1098 29.988 34.071H32.1506C32.533 34.071 32.8997 34.2229 33.1701 34.4932C33.4404 34.7636 33.5923 35.1303 33.5923 35.5127C33.5923 35.8951 33.4404 36.2618 33.1701 36.5322C32.8997 36.8025 32.533 36.9544 32.1506 36.9544H14.8499C14.4675 36.9544 14.1008 36.8025 13.8304 36.5322C13.5601 36.2618 13.4082 35.8951 13.4082 35.5127C13.4082 35.1303 13.5601 34.7636 13.8304 34.4932C14.1008 34.2229 14.4675 34.071 14.8499 34.071H17.0125C17.493 33.1098 17.7333 31.6681 17.7333 29.7458H6.19952C6.19952 29.7458 0.432617 29.7458 0.432617 23.9789V6.67816ZM4.46369 4.21281C4.14714 4.43353 3.89449 4.73392 3.73129 5.08361C3.48838 5.5925 3.34733 6.14398 3.31607 6.707V23.9789C3.31607 24.916 3.54098 25.4264 3.73417 25.7147C3.93601 26.0146 4.22628 26.2587 4.60497 26.4471C5.09182 26.6802 5.61797 26.82 6.15627 26.8595L6.22836 26.8623H40.801C41.7381 26.8623 42.2485 26.6374 42.5368 26.4442C42.8534 26.2235 43.106 25.9231 43.2692 25.5734C43.5022 25.0866 43.6421 24.5604 43.6815 24.0221L43.6844 23.95V6.67816C43.6844 5.74104 43.4595 5.23067 43.2663 4.94232C43.0456 4.62578 42.7452 4.37313 42.3955 4.20993C41.8866 3.96702 41.3352 3.82597 40.7721 3.79471H6.19952C5.2624 3.79471 4.75203 4.01962 4.46369 4.21281Z" fill="white"/>
</svg>
