<svg width="22" height="16" viewBox="0 0 22 16" fill="none" xmlns="http://www.w3.org/2000/svg">
<path d="M0 2.66667C0 1.95942 0.286355 1.28115 0.796069 0.781048C1.30578 0.280951 1.9971 0 2.71795 0H19.0256C19.7465 0 20.4378 0.280951 20.9475 0.781048C21.4572 1.28115 21.7436 1.95942 21.7436 2.66667V13.3333C21.7436 14.0406 21.4572 14.7189 20.9475 15.219C20.4378 15.719 19.7465 16 19.0256 16H2.71795C1.9971 16 1.30578 15.719 0.796069 15.219C0.286355 14.7189 0 14.0406 0 13.3333V2.66667ZM2.71795 1.33333C2.35753 1.33333 2.01187 1.47381 1.75701 1.72386C1.50215 1.97391 1.35897 2.31304 1.35897 2.66667V2.956L10.8718 8.556L20.3846 2.956V2.66667C20.3846 2.31304 20.2414 1.97391 19.9866 1.72386C19.7317 1.47381 19.3861 1.33333 19.0256 1.33333H2.71795ZM20.3846 4.51067L13.9866 8.27733L20.3846 12.14V4.51067ZM20.3384 13.6787L12.6738 9.05067L10.8718 10.1107L9.06979 9.05067L1.40518 13.6773C1.4824 13.9611 1.65294 14.2118 1.89032 14.3907C2.1277 14.5696 2.41863 14.6666 2.71795 14.6667H19.0256C19.3248 14.6667 19.6156 14.5699 19.8529 14.3913C20.0903 14.2126 20.2609 13.9621 20.3384 13.6787ZM1.35897 12.14L7.75703 8.27733L1.35897 4.51067V12.14Z" fill="white"/>
</svg>
