<svg width="25" height="25" viewBox="0 0 25 25" fill="none" xmlns="http://www.w3.org/2000/svg">
<path d="M16.6253 9.05874C16.6253 10.2536 16.1506 11.3996 15.3057 12.2445C14.4608 13.0895 13.3148 13.5641 12.1199 13.5641C10.925 13.5641 9.77903 13.0895 8.9341 12.2445C8.08918 11.3996 7.6145 10.2536 7.6145 9.05874C7.6145 7.86384 8.08918 6.71787 8.9341 5.87294C9.77903 5.02802 10.925 4.55334 12.1199 4.55334C13.3148 4.55334 14.4608 5.02802 15.3057 5.87294C16.1506 6.71787 16.6253 7.86384 16.6253 9.05874Z" fill="white"/>
<path fill-rule="evenodd" clip-rule="evenodd" d="M0.105713 12.0624C0.105713 8.87595 1.37151 5.82004 3.62465 3.56691C5.87778 1.31377 8.93369 0.0479736 12.1201 0.0479736C15.3065 0.0479736 18.3624 1.31377 20.6156 3.56691C22.8687 5.82004 24.1345 8.87595 24.1345 12.0624C24.1345 15.2488 22.8687 18.3047 20.6156 20.5578C18.3624 22.811 15.3065 24.0767 12.1201 24.0767C8.93369 24.0767 5.87778 22.811 3.62465 20.5578C1.37151 18.3047 0.105713 15.2488 0.105713 12.0624ZM12.1201 1.54977C10.1404 1.54988 8.20096 2.10899 6.525 3.16275C4.84905 4.21651 3.50471 5.72208 2.6467 7.5062C1.7887 9.29031 1.4519 11.2804 1.67509 13.2475C1.89828 15.2146 2.67237 17.0787 3.90827 18.6252C4.97454 16.9072 7.32186 15.066 12.1201 15.066C16.9183 15.066 19.2642 16.9057 20.3319 18.6252C21.5678 17.0787 22.3419 15.2146 22.5651 13.2475C22.7883 11.2804 22.4515 9.29031 21.5935 7.5062C20.7355 5.72208 19.3911 4.21651 17.7152 3.16275C16.0392 2.10899 14.0998 1.54988 12.1201 1.54977Z" fill="white"/>
</svg>
