<svg xmlns="http://www.w3.org/2000/svg" width="33" height="52" fill="none" viewBox="0 0 33 52"><path fill="#FFDC00" stroke="#FFDC00" d="M17.951 10.48a2.044 2.044 0 0 0-2.902 0 2.069 2.069 0 0 0-.599 1.457v6.25c0 .546.215 1.07.599 1.457a2.044 2.044 0 0 0 2.902 0c.384-.387.599-.91.599-1.456v-6.25c0-.546-.215-1.07-.599-1.458ZM28.4 35.376c0 3.184-1.255 6.237-3.487 8.487a11.85 11.85 0 0 1-8.413 3.513 11.85 11.85 0 0 1-8.413-3.513A12.051 12.051 0 0 1 4.6 35.375v-18.75c0-3.184 1.255-6.237 3.487-8.487A11.85 11.85 0 0 1 16.5 4.625a11.85 11.85 0 0 1 8.413 3.513 12.051 12.051 0 0 1 3.487 8.487v18.75ZM16.5.5C12.255.5 8.185 2.2 5.185 5.224A16.19 16.19 0 0 0 .5 16.625v18.75a16.19 16.19 0 0 0 4.685 11.4c3 3.025 7.07 4.725 11.315 4.725 4.245 0 8.315-1.7 11.315-4.724A16.19 16.19 0 0 0 32.5 35.375v-18.75c0-4.275-1.685-8.376-4.685-11.4C24.815 2.2 20.745.5 16.5.5Z"/></svg>