<svg width="17" height="16" viewBox="0 0 17 16" fill="none" xmlns="http://www.w3.org/2000/svg">
<path d="M4.39763 1.32829C4.3386 1.25236 4.26409 1.18985 4.17904 1.14492C4.09399 1.09999 4.00035 1.07368 3.90435 1.06772C3.80835 1.06176 3.71218 1.07629 3.62223 1.11036C3.53228 1.14442 3.45061 1.19724 3.38263 1.26529L2.34863 2.30029C1.86563 2.78429 1.68763 3.4693 1.89863 4.0703C2.77536 6.5574 4.19979 8.8157 6.06664 10.6783C7.92923 12.5451 10.1875 13.9696 12.6746 14.8463C13.2756 15.0573 13.9606 14.8793 14.4446 14.3963L15.4786 13.3623C15.5467 13.2943 15.5995 13.2127 15.6336 13.1227C15.6676 13.0327 15.6822 12.9366 15.6762 12.8406C15.6703 12.7446 15.6439 12.6509 15.599 12.5659C15.5541 12.4808 15.4916 12.4063 15.4156 12.3473L13.1086 10.5533C13.0274 10.4905 12.9331 10.4469 12.8326 10.4258C12.7322 10.4046 12.6283 10.4065 12.5286 10.4313L10.3386 10.9783C10.0463 11.0509 9.74016 11.0467 9.44988 10.9663C9.15959 10.8859 8.89498 10.7319 8.68164 10.5193L6.22564 8.06229C6.01282 7.84906 5.85865 7.58449 5.77806 7.2942C5.69748 7.0039 5.6932 6.69773 5.76564 6.4053L6.31364 4.2153C6.33839 4.11568 6.34028 4.01175 6.31915 3.9113C6.29802 3.81086 6.25443 3.71649 6.19164 3.63529L4.39763 1.32829ZM2.62763 0.511295C2.80263 0.336244 3.01286 0.200425 3.24437 0.112856C3.47589 0.0252871 3.72338 -0.0120282 3.97042 0.00338804C4.21746 0.0188043 4.45839 0.0865995 4.67722 0.202272C4.89604 0.317944 5.08776 0.478846 5.23963 0.674295L7.03364 2.98029C7.36264 3.4033 7.47864 3.9543 7.34864 4.4743L6.80164 6.6643C6.77355 6.77773 6.77518 6.8965 6.80636 7.00913C6.83753 7.12175 6.89721 7.22445 6.97964 7.3073L9.43664 9.76429C9.51958 9.84688 9.62244 9.90666 9.73527 9.93785C9.84809 9.96903 9.96705 9.97056 10.0806 9.9423L12.2696 9.3953C12.5263 9.33151 12.794 9.32671 13.0528 9.38127C13.3116 9.43583 13.5546 9.54832 13.7636 9.71029L16.0696 11.5043C16.8986 12.1493 16.9746 13.3743 16.2326 14.1153L15.1986 15.1493C14.4586 15.8893 13.3526 16.2143 12.3216 15.8513C9.68231 14.9239 7.28617 13.413 5.31164 11.4313C3.33001 9.45704 1.81919 7.06126 0.891635 4.4223C0.529635 3.3923 0.854635 2.2853 1.59464 1.54529L2.62763 0.511295Z" fill="#FFF7F7"/>
</svg>
