<svg width="23" height="23" viewBox="0 0 23 23" fill="none" xmlns="http://www.w3.org/2000/svg">
<path d="M11.2085 21.2636C8.65273 21.2636 6.20164 20.2483 4.39444 18.4411C2.58724 16.6339 1.57196 14.1829 1.57196 11.6271C1.57196 9.07131 2.58724 6.62022 4.39444 4.81302C6.20164 3.00582 8.65273 1.99054 11.2085 1.99054C13.7643 1.99054 16.2154 3.00582 18.0226 4.81302C19.8298 6.62022 20.845 9.07131 20.845 11.6271C20.845 14.1829 19.8298 16.6339 18.0226 18.4411C16.2154 20.2483 13.7643 21.2636 11.2085 21.2636ZM11.2085 22.6403C14.1294 22.6403 16.9306 21.48 18.996 19.4146C21.0614 17.3492 22.2217 14.548 22.2217 11.6271C22.2217 8.7062 21.0614 5.90495 18.996 3.83958C16.9306 1.77421 14.1294 0.613892 11.2085 0.613892C8.28762 0.613892 5.48637 1.77421 3.421 3.83958C1.35563 5.90495 0.195313 8.7062 0.195312 11.6271C0.195313 14.548 1.35563 17.3492 3.421 19.4146C5.48637 21.48 8.28762 22.6403 11.2085 22.6403Z" fill="white"/>
<path d="M8.8281 7.57349C8.94068 7.51552 9.06706 7.48973 9.19334 7.49896C9.31963 7.50819 9.44092 7.55208 9.54387 7.62579L14.3615 11.0669C14.4508 11.1306 14.5235 11.2146 14.5736 11.3121C14.6238 11.4095 14.65 11.5175 14.65 11.6271C14.65 11.7367 14.6238 11.8447 14.5736 11.9422C14.5235 12.0396 14.4508 12.1237 14.3615 12.1873L9.54387 15.6285C9.44096 15.7021 9.31972 15.746 9.1935 15.7552C9.06728 15.7644 8.94096 15.7387 8.82843 15.6808C8.7159 15.6229 8.62151 15.5351 8.55564 15.427C8.48977 15.3189 8.45498 15.1948 8.45508 15.0682V8.18601C8.45495 8.05949 8.48969 7.93538 8.5555 7.82732C8.62131 7.71926 8.71563 7.63143 8.8281 7.57349Z" fill="white"/>
</svg>
