<svg width="18" height="24" viewBox="0 0 18 24" fill="none" xmlns="http://www.w3.org/2000/svg">
<mask id="path-1-inside-1_56_124" fill="white">
<path d="M6.75004 11.25C6.75004 10.8522 6.90808 10.4706 7.18938 10.1893C7.47068 9.90804 7.85222 9.75 8.25004 9.75H9.75004C10.1479 9.75 10.5294 9.90804 10.8107 10.1893C11.092 10.4706 11.25 10.8522 11.25 11.25V12.657L11.85 15.0555C11.9248 15.3556 11.905 15.6715 11.7933 15.9599C11.6816 16.2482 11.4834 16.4951 11.226 16.6665L9.83104 17.5965C9.5847 17.7606 9.2953 17.8482 8.99929 17.8482C8.70328 17.8482 8.41388 17.7606 8.16754 17.5965L6.77254 16.6665C6.51541 16.4949 6.3176 16.248 6.20617 15.9596C6.09474 15.6712 6.07514 15.3554 6.15004 15.0555L6.75004 12.657V11.25ZM9.75004 11.25H8.25004V12.657C8.25003 12.7799 8.23491 12.9023 8.20504 13.0215L7.60504 15.4185L9.00004 16.3485L10.395 15.4185L9.79504 13.0215C9.76517 12.9023 9.75005 12.7799 9.75004 12.657V11.25Z"/>
</mask>
<path d="M6.75004 11.25C6.75004 10.8522 6.90808 10.4706 7.18938 10.1893C7.47068 9.90804 7.85222 9.75 8.25004 9.75H9.75004C10.1479 9.75 10.5294 9.90804 10.8107 10.1893C11.092 10.4706 11.25 10.8522 11.25 11.25V12.657L11.85 15.0555C11.9248 15.3556 11.905 15.6715 11.7933 15.9599C11.6816 16.2482 11.4834 16.4951 11.226 16.6665L9.83104 17.5965C9.5847 17.7606 9.2953 17.8482 8.99929 17.8482C8.70328 17.8482 8.41388 17.7606 8.16754 17.5965L6.77254 16.6665C6.51541 16.4949 6.3176 16.248 6.20617 15.9596C6.09474 15.6712 6.07514 15.3554 6.15004 15.0555L6.75004 12.657V11.25ZM9.75004 11.25H8.25004V12.657C8.25003 12.7799 8.23491 12.9023 8.20504 13.0215L7.60504 15.4185L9.00004 16.3485L10.395 15.4185L9.79504 13.0215C9.76517 12.9023 9.75005 12.7799 9.75004 12.657V11.25Z" fill="#17003B"/>
<path d="M8.25004 9.75V11.75V9.75ZM11.25 12.657H9.25004V12.9034L9.30983 13.1424L11.25 12.657ZM11.85 15.0555L13.7907 14.5721L13.7903 14.5701L11.85 15.0555ZM11.226 16.6665L10.1173 15.0019L10.1166 15.0024L11.226 16.6665ZM9.83104 17.5965L10.94 19.2609L10.9404 19.2606L9.83104 17.5965ZM8.16754 17.5965L7.05814 19.2606L7.05854 19.2609L8.16754 17.5965ZM6.77254 16.6665L5.66213 18.3299L5.66314 18.3306L6.77254 16.6665ZM6.15004 15.0555L4.20983 14.5701L4.20963 14.5709L6.15004 15.0555ZM6.75004 12.657L8.69025 13.1424L8.75004 12.9034V12.657H6.75004ZM9.75004 11.25H11.75V9.25H9.75004V11.25ZM8.25004 11.25V9.25H6.25004V11.25H8.25004ZM8.25004 12.657L10.25 12.6572V12.657H8.25004ZM8.20504 13.0215L6.26504 12.5353L6.2649 12.5359L8.20504 13.0215ZM7.60504 15.4185L5.6649 14.9329L5.32255 16.3005L6.49564 17.0826L7.60504 15.4185ZM9.00004 16.3485L7.89064 18.0126L9.00004 18.7522L10.1094 18.0126L9.00004 16.3485ZM10.395 15.4185L11.5044 17.0826L12.6775 16.3005L12.3352 14.9329L10.395 15.4185ZM9.79504 13.0215L11.7352 12.5359L11.735 12.5353L9.79504 13.0215ZM9.75004 12.657H7.75004V12.6572L9.75004 12.657ZM8.75004 11.25C8.75004 11.3826 8.69736 11.5098 8.60359 11.6036L5.77517 8.77513C5.11879 9.4315 4.75004 10.3217 4.75004 11.25H8.75004ZM8.60359 11.6036C8.50983 11.6973 8.38265 11.75 8.25004 11.75V7.75C7.32178 7.75 6.43154 8.11875 5.77517 8.77513L8.60359 11.6036ZM8.25004 11.75H9.75004V7.75H8.25004V11.75ZM9.75004 11.75C9.61743 11.75 9.49025 11.6973 9.39649 11.6036L12.2249 8.77513C11.5685 8.11875 10.6783 7.75 9.75004 7.75V11.75ZM9.39649 11.6036C9.30272 11.5098 9.25004 11.3826 9.25004 11.25H13.25C13.25 10.3217 12.8813 9.4315 12.2249 8.77513L9.39649 11.6036ZM9.25004 11.25V12.657H13.25V11.25H9.25004ZM9.30983 13.1424L9.90983 15.5409L13.7903 14.5701L13.1903 12.1716L9.30983 13.1424ZM9.90934 15.5389C9.88443 15.4389 9.89104 15.3336 9.92827 15.2375L13.6582 16.6822C13.9189 16.0093 13.9652 15.2723 13.7907 14.5721L9.90934 15.5389ZM9.92827 15.2375C9.96551 15.1413 10.0315 15.0591 10.1173 15.0019L12.3347 18.3311C12.9353 17.931 13.3976 17.3551 13.6582 16.6822L9.92827 15.2375ZM10.1166 15.0024L8.72164 15.9324L10.9404 19.2606L12.3354 18.3306L10.1166 15.0024ZM8.72204 15.9321C8.80415 15.8774 8.90062 15.8482 8.99929 15.8482V19.8482C9.68999 19.8482 10.3652 19.6439 10.94 19.2609L8.72204 15.9321ZM8.99929 15.8482C9.09796 15.8482 9.19443 15.8774 9.27654 15.9321L7.05854 19.2609C7.63333 19.6439 8.30859 19.8482 8.99929 19.8482V15.8482ZM9.27694 15.9324L7.88194 15.0024L5.66314 18.3306L7.05814 19.2606L9.27694 15.9324ZM7.88295 15.0031C7.96866 15.0603 8.0346 15.1426 8.07174 15.2387L4.3406 16.6804C4.6006 17.3533 5.06216 17.9294 5.66213 18.3299L7.88295 15.0031ZM8.07174 15.2387C8.10888 15.3348 8.11542 15.4401 8.09045 15.5401L4.20963 14.5709C4.03485 15.2708 4.0806 16.0076 4.3406 16.6804L8.07174 15.2387ZM8.09025 15.5409L8.69025 13.1424L4.80983 12.1716L4.20983 14.5701L8.09025 15.5409ZM8.75004 12.657V11.25H4.75004V12.657H8.75004ZM9.75004 9.25H8.25004V13.25H9.75004V9.25ZM6.25004 11.25V12.657H10.25V11.25H6.25004ZM6.25004 12.6568C6.25004 12.6158 6.25508 12.575 6.26504 12.5353L10.145 13.5077C10.2147 13.2296 10.25 12.9439 10.25 12.6572L6.25004 12.6568ZM6.2649 12.5359L5.6649 14.9329L9.54518 15.9041L10.1452 13.5071L6.2649 12.5359ZM6.49564 17.0826L7.89064 18.0126L10.1094 14.6844L8.71444 13.7544L6.49564 17.0826ZM10.1094 18.0126L11.5044 17.0826L9.28564 13.7544L7.89064 14.6844L10.1094 18.0126ZM12.3352 14.9329L11.7352 12.5359L7.8549 13.5071L8.4549 15.9041L12.3352 14.9329ZM11.735 12.5353C11.745 12.575 11.75 12.6158 11.75 12.6568L7.75004 12.6572C7.75007 12.9439 7.78533 13.2296 7.85504 13.5077L11.735 12.5353ZM11.75 12.657V11.25H7.75004V12.657H11.75Z" fill="black" mask="url(#path-1-inside-1_56_124)"/>
<path d="M9.25 1.5V1H9.5V1.5V2H9.25V1.5Z" fill="#17003B" stroke="black" stroke-width="2"/>
</svg>
