<svg width="14" height="16" viewBox="0 0 14 16" fill="none" xmlns="http://www.w3.org/2000/svg">
<path d="M4.33801 1.59C3.38555 1.85232 2.4396 2.13774 1.50101 2.446C1.41523 2.47366 1.33898 2.52491 1.28098 2.59388C1.22297 2.66285 1.18555 2.74676 1.17301 2.836C0.619006 6.993 1.89901 10.026 3.42601 12.024C4.07224 12.8786 4.84317 13.6314 5.71301 14.257C6.05901 14.501 6.36501 14.677 6.60601 14.79C6.72601 14.8467 6.82367 14.886 6.89901 14.908C6.93222 14.9181 6.96593 14.9264 7.00001 14.933C7.03375 14.9264 7.06712 14.918 7.10001 14.908C7.17601 14.8853 7.27401 14.846 7.39401 14.79C7.63401 14.677 7.94101 14.5 8.28701 14.257C9.15684 13.6314 9.92778 12.8786 10.574 12.024C12.101 10.027 13.381 6.993 12.827 2.836C12.8145 2.74676 12.777 2.66285 12.719 2.59388C12.661 2.52491 12.5848 2.47366 12.499 2.446C11.848 2.233 10.749 1.886 9.66201 1.591C8.55201 1.29 7.53101 1.067 7.00001 1.067C6.47001 1.067 5.44801 1.289 4.33801 1.59ZM4.07201 0.56C5.15701 0.265 6.31001 0 7.00001 0C7.69001 0 8.84301 0.265 9.92801 0.56C11.038 0.86 12.157 1.215 12.815 1.43C13.0901 1.52085 13.334 1.68747 13.5187 1.9107C13.7034 2.13394 13.8213 2.40474 13.859 2.692C14.455 7.169 13.072 10.487 11.394 12.682C10.6822 13.6207 9.83376 14.4476 8.87701 15.135C8.54653 15.3734 8.19587 15.5826 7.82901 15.76C7.54901 15.892 7.24801 16 7.00001 16C6.75201 16 6.45201 15.892 6.17101 15.76C5.80415 15.5826 5.45348 15.3734 5.12301 15.135C4.16626 14.4476 3.31785 13.6207 2.60601 12.682C0.928005 10.487 -0.454995 7.169 0.141005 2.692C0.178693 2.40474 0.296649 2.13394 0.481322 1.9107C0.665996 1.68747 0.909897 1.52085 1.18501 1.43C2.14026 1.11701 3.10287 0.826926 4.07201 0.56Z" fill="white"/>
</svg>
