<svg width="18" height="26" viewBox="0 0 18 26" fill="none" xmlns="http://www.w3.org/2000/svg">
<path d="M5.25 11.6333C5.05109 11.6333 4.86032 11.7158 4.71967 11.8627C4.57902 12.0096 4.5 12.2089 4.5 12.4166C4.5 12.6244 4.57902 12.8236 4.71967 12.9705C4.86032 13.1174 5.05109 13.2 5.25 13.2H12.75C12.9489 13.2 13.1397 13.1174 13.2803 12.9705C13.421 12.8236 13.5 12.6244 13.5 12.4166C13.5 12.2089 13.421 12.0096 13.2803 11.8627C13.1397 11.7158 12.9489 11.6333 12.75 11.6333H5.25ZM4.5 15.55C4.5 15.3422 4.57902 15.143 4.71967 14.9961C4.86032 14.8492 5.05109 14.7666 5.25 14.7666H12.75C12.9489 14.7666 13.1397 14.8492 13.2803 14.9961C13.421 15.143 13.5 15.3422 13.5 15.55C13.5 15.7577 13.421 15.957 13.2803 16.1039C13.1397 16.2508 12.9489 16.3333 12.75 16.3333H5.25C5.05109 16.3333 4.86032 16.2508 4.71967 16.1039C4.57902 15.957 4.5 15.7577 4.5 15.55ZM4.5 18.6833C4.5 18.4755 4.57902 18.2763 4.71967 18.1294C4.86032 17.9825 5.05109 17.9 5.25 17.9H8.25C8.44891 17.9 8.63968 17.9825 8.78033 18.1294C8.92098 18.2763 9 18.4755 9 18.6833C9 18.8911 8.92098 19.0903 8.78033 19.2372C8.63968 19.3841 8.44891 19.4666 8.25 19.4666H5.25C5.05109 19.4666 4.86032 19.3841 4.71967 19.2372C4.57902 19.0903 4.5 18.8911 4.5 18.6833Z" fill="#17003B"/>
<path d="M11.25 0.666504H3C2.20435 0.666504 1.44129 0.996622 0.87868 1.58424C0.31607 2.17185 0 2.96883 0 3.79984V22.5998C0 23.4308 0.31607 24.2278 0.87868 24.8154C1.44129 25.4031 2.20435 25.7332 3 25.7332H15C15.7956 25.7332 16.5587 25.4031 17.1213 24.8154C17.6839 24.2278 18 23.4308 18 22.5998V7.7165L11.25 0.666504ZM11.25 2.23317V5.3665C11.25 5.98976 11.4871 6.58749 11.909 7.02821C12.331 7.46892 12.9033 7.7165 13.5 7.7165H16.5V22.5998C16.5 23.0153 16.342 23.4138 16.0607 23.7076C15.7794 24.0014 15.3978 24.1665 15 24.1665H3C2.60218 24.1665 2.22064 24.0014 1.93934 23.7076C1.65804 23.4138 1.5 23.0153 1.5 22.5998V3.79984C1.5 3.38433 1.65804 2.98584 1.93934 2.69204C2.22064 2.39823 2.60218 2.23317 3 2.23317H11.25Z" fill="#17003B"/>
</svg>
